<?xml version="1.0" encoding="utf-8"?>
<!-- Generator: Adobe Illustrator 23.1.0, SVG Export Plug-In . SVG Version: 6.00 Build 0)  -->
<svg version="1.1" id="圖層_1" xmlns="http://www.w3.org/2000/svg" xmlns:xlink="http://www.w3.org/1999/xlink" x="0px" y="0px"
	 viewBox="0 0 200 200" style="enable-background:new 0 0 200 200;" xml:space="preserve">
<style type="text/css">
	.st0{fill:#FFFFFF;}
	.st1{font-family:'GenYoGothicTW-Bold-TTF';}
	.st2{font-size:26.28px;}
	.st3{fill:none;stroke:#FFFFFF;stroke-width:2;stroke-miterlimit:10;}
</style>
<text transform="matrix(1 0 0 1 48.3481 24.6036)" class="st0 st1 st2">公益場次</text>
<g>
	<path class="st3" d="M63.3,53.9C51.6,64.1,51,82.4,61.5,93.4L94,127.8"/>
	<path class="st0" d="M96.5,122.3c2,2.1,5.1,2.1,7.1,0L134,90.4c8.8-9.3,8.3-24.6-1.6-33.2c-8.6-7.4-21.4-6.1-29.3,2.2l-3.1,3.2
		l-3.1-3.2c-7.9-8.3-20.7-9.7-29.3-2.2c-9.8,8.5-10.4,23.9-1.6,33.2L96.5,122.3z M177.4,144c-3.3-3-8.4-2.8-11.9,0l-25.8,20.6
		c-3.2,2.5-7.1,3.9-11.2,3.9h-33c-2.5,0-4.4-2-4.4-4.4c0-2.5,2-4.4,4.4-4.4h21.9c4.4,0,8.6-3,9.3-7.4c1-5.6-3.4-10.4-8.8-10.4H73.2
		c-7.6,0-14.8,2.6-20.7,7.4l-13,10.5H24c-2.5,0-4.4,2-4.4,4.4v26.7c0,2.5,2,4.4,4.4,4.4h99.6c4.1,0,8-1.4,11.2-3.9l42.2-33.8
		C181.3,154.2,181.6,147.8,177.4,144z"/>
</g>
</svg>
