<?xml version="1.0" encoding="utf-8"?>
<!-- Generator: Adobe Illustrator 23.1.0, SVG Export Plug-In . SVG Version: 6.00 Build 0)  -->
<svg version="1.1" id="圖層_1" xmlns="http://www.w3.org/2000/svg" xmlns:xlink="http://www.w3.org/1999/xlink" x="0px" y="0px"
	 viewBox="0 0 400 400" style="enable-background:new 0 0 400 400;" xml:space="preserve">
<style type="text/css">
	.st0{fill:#FFFFFF;}
	.st1{font-family:'GenYoGothicTW-Bold-TTF';}
	.st2{font-size:42.4375px;}
	.st3{fill:none;stroke:#FFFFFF;stroke-width:2;stroke-miterlimit:10;}
</style>
<polygon class="st0" points="194,326 194,183 96,114 60,131 158,200 158,343 "/>
<polygon class="st0" points="209,325.9 209,182.9 307,113.9 343,130.9 245,199.9 245,342.9 "/>
<text transform="matrix(1 0 0 1 115.125 65.5322)" class="st0 st1 st2">種子講師</text>
<polyline class="st3" points="53.5,138.5 148.5,205.5 147.5,345.5 "/>
<text transform="matrix(1 0 0 1 603.875 65.7822)" class="st0 st1 st2">種子教師</text>
<text transform="matrix(1 0 0 1 1047.875 65.7822)" class="st0 st1 st2">公益場次</text>
<path class="st0" d="M640.2,274.7c-1,0-2.1,0.2-3.1,0.5c-5.7,1.8-11.6,3-17.9,3s-12.2-1.2-17.9-3c-1-0.3-2-0.5-3.1-0.5
	c-27.1,0-49,22-48.8,49.1c0.1,11.5,9.5,20.7,20.9,20.7h97.7c11.5,0,20.9-9.2,20.9-20.7C689.1,296.8,667.2,274.7,640.2,274.7z
	 M619.2,260.8c23.1,0,41.9-18.7,41.9-41.9s-18.7-41.9-41.9-41.9s-41.9,18.7-41.9,41.9S596.1,260.8,619.2,260.8z M807.6,121.3H640.2
	c-11.5,0-20.9,9.7-20.9,21.6v20.2c10.2,0,19.7,3,27.9,7.8v-21.7h153.5v125.6h-27.9v-27.9h-55.8v27.9h-33.2
	c8.3,7.3,14.4,16.9,17.3,27.9h106.6c11.5,0,20.9-9.7,20.9-21.6V142.9C828.5,131,819.2,121.3,807.6,121.3z"/>
<polyline class="st3" points="708,280 708,239 773,239 "/>
<path class="st3" d="M1080.8,126.3c-18.4,16.1-19.4,44.9-2.9,62.3l51.2,54.1"/>
<path class="st0" d="M1133,234.1c3.1,3.3,8.1,3.3,11.2,0l47.9-50.2c13.9-14.6,13.1-38.8-2.5-52.2c-13.5-11.7-33.7-9.6-46.1,3.4
	l-4.9,5.1l-4.9-5.1c-12.4-13.1-32.6-15.2-46.1-3.4c-15.5,13.4-16.3,37.6-2.5,52.2L1133,234.1z M1260.4,268.2
	c-5.2-4.7-13.3-4.4-18.7,0l-40.6,32.5c-5,4-11.2,6.2-17.6,6.2h-52c-3.9,0-7-3.2-7-7c0-3.9,3.2-7,7-7h34.4c7,0,13.5-4.8,14.6-11.7
	c1.5-8.8-5.3-16.4-13.9-16.4h-70.3c-11.9,0-23.3,4.1-32.6,11.6l-20.4,16.6H1019c-3.9,0-7,3.2-7,7V342c0,3.9,3.2,7,7,7h156.8
	c6.4,0,12.6-2.2,17.6-6.2l66.4-53.2C1266.5,284.4,1267.1,274.2,1260.4,268.2z"/>
</svg>
