<?xml version="1.0" encoding="utf-8"?>
<!-- Generator: Adobe Illustrator 23.1.0, SVG Export Plug-In . SVG Version: 6.00 Build 0)  -->
<svg version="1.1" id="圖層_1" xmlns="http://www.w3.org/2000/svg" xmlns:xlink="http://www.w3.org/1999/xlink" x="0px" y="0px"
	 viewBox="0 0 200 200" style="enable-background:new 0 0 200 200;" xml:space="preserve">
<style type="text/css">
	.st0{fill:#FFFFFF;}
	.st1{font-family:'GenYoGothicTW-Bold-TTF';}
	.st2{font-size:26.28px;}
	.st3{fill:none;stroke:#FFFFFF;stroke-width:2;stroke-miterlimit:10;}
</style>
<g>
	<text transform="matrix(1 0 0 1 48.3484 24.6038)" class="st0 st1 st2">種子教師</text>
	<path class="st0" d="M68.8,151.3c-0.6,0-1.4,0.1-2,0.3c-3.7,1.2-7.5,1.9-11.5,1.9c-4.1,0-7.9-0.8-11.5-1.9c-0.6-0.2-1.3-0.3-2-0.3
		c-17.5,0-31.6,14.2-31.5,31.7c0.1,7.4,6.1,13.3,13.5,13.3h63c7.4,0,13.5-5.9,13.5-13.3C100.3,165.5,86.2,151.3,68.8,151.3z
		 M55.2,142.3c14.9,0,27-12.1,27-27s-12.1-27-27-27s-27,12.1-27,27C28.2,130.2,40.3,142.3,55.2,142.3z M176.7,52.4H68.8
		c-7.4,0-13.5,6.3-13.5,13.9v13c6.6,0,12.7,1.9,18,5V70.4h99v81h-18v-18h-36v18H96.9c5.4,4.7,9.3,10.9,11.2,18h68.7
		c7.4,0,13.5-6.3,13.5-13.9V66.3C190.2,58.7,184.2,52.4,176.7,52.4z"/>
	<polyline class="st3" points="111.5,152.7 111.5,126.3 153.4,126.3 	"/>
</g>
</svg>
